<svg xmlns="http://www.w3.org/2000/svg" viewBox="0 0 128 128">
    <defs>
        <filter id="feBrightness1">
            <feColorMatrix in="SourceGraphic" type="matrix" values="1 0 0 0 0.1
                                                                    0 1 0 0 0.1
                                                                    0 0 1 0 0.1
                                                                    0 0 0 1 0"/>
        </filter>
        <filter id="feBrightness2">
            <feColorMatrix in="SourceGraphic" type="matrix" values="1 0 0 0 0.2
                                                                    0 1 0 0 0.2
                                                                    0 0 1 0 0.2
                                                                    0 0 0 1 0"/>
        </filter>
        <filter id="feBrightness3">
            <feColorMatrix in="SourceGraphic" type="matrix" values="1 0 0 0 0.3
                                                                    0 1 0 0 0.3
                                                                    0 0 1 0 0.3
                                                                    0 0 0 1 0"/>
        </filter>
        <filter id="feBrightness4">
            <feColorMatrix in="SourceGraphic" type="matrix" values="1 0 0 0 0.4
                                                                    0 1 0 0 0.4
                                                                    0 0 1 0 0.4
                                                                    0 0 0 1 0"/>
        </filter>
        <filter id="feBrightness5">
            <feColorMatrix in="SourceGraphic" type="matrix" values="1 0 0 0 0.5
                                                                    0 1 0 0 0.5
                                                                    0 0 1 0 0.5
                                                                    0 0 0 1 0"/>
        </filter>
    </defs>
    <path fill="currentColor" d="M24 9h80v110H24z" filter="url(#feBrightness5)"/>
    <circle cx="82" cy="56.5" r="17.5" fill="#FFF"/>
    <path fill="currentColor" d="M103.3 63.1c-.8-1.4-2.8-2.8-6.2-3.3-2.1-.3-2.8.2-3 .5a1 1 0 0 1-.9.5l-2.5.3c-.6.1-1.1.6-1.1 1.2 0 .8-.5 1.4-2.4-1.1-3.2-4-4-2.8-6-2.2-2 .7-2.3 0-2.3 0s-1-1.8-2.2-2c-1.2-.2-4.2-3.2-8.8-4.9-4.7-1.8-7.8.3-7.8.3l-3.3 2c-.3.2-.7.2-1.1.1l-1.4-.5h-7.6l-6.8-1.5h-.5l-4.1.9a1 1 0 0 1-.8-.1l-1.5-.8c-.4-.2-.8-.2-1.1 0l-1.3.6c-.4.2-.9.2-1.3-.1-.4-.3-1-.3-1.4 0l-2.4 1.6a1 1 0 0 1-1.2.1H24v29.5l80 .6V63.5c-.3 0-.5-.1-.7-.4z" filter="url(#feBrightness4)"/>
    <path fill="currentColor" d="M103.8 80.3a4 4 0 0 1-4.3-.4l-6.9-5.5c-.6-.5-1.4-.8-2.2-.8-1.1-.1-3.3-.5-7.7-2.4l-20.4-8.9a3.8 3.8 0 0 0-3.6.3L53 66.1l-.9.4-18.5 6c-.5.2-1 .2-1.5.2L24 72v28h80V80.2l-.2.1z" filter="url(#feBrightness3)"/>
    <path fill="currentColor" d="M95.7 74.9c-.6-.2-1.2-.3-1.9-.3L81 75.8l-.5.1-5 1.1-1.2.1-18-1.2c-.5 0-1 0-1.4.2l-20.5 6.2-.7.1-9.7 1V109h80V78.3l-8.3-3.4z" filter="url(#feBrightness2)"/>
    <path fill="currentColor" d="M80 115a4 4 0 0 0 4-4v-7.3a4 4 0 0 0-3-3.9c-3-.8-6.9-1.2-7.9-.7-3.9 2.2-13.2.8-16.2-1.8-2.4-2.2-9.6-4.1-12.1-4.8-.6-.1-1.2-.2-1.8 0l-11 2.2c-.8.2-1.7.1-2.5-.3L24.2 92l-.2-.1v19.5c1.5 1.3 3.1 2.5 4.7 3.6H80z" filter="url(#feBrightness1)"/>
    <path fill="currentColor" d="M104 119V92.1c-3 1-6 2.6-11.3 3.9-7.2 1.8-19.5 7.5-22.1 8.7a2 2 0 0 1-1.1.3l-17.3 2.1-27.8 4.6-.4.2v7.1h80z"/>
    <g>
        <path fill="#FFF" d="M24 9v110h80V9H24zm70 100H34V19h60v90z"/>
    </g>
    <g>
        <path fill="#2f3542" d="M104 122H24a3 3 0 0 1-3-3V9a3 3 0 0 1 3-3h80a3 3 0 0 1 3 3v110a3 3 0 0 1-3 3zm-77-6h74V12H27v104z" />
    </g>
</svg>
