<?xml version="1.0" encoding="UTF-8" standalone="no"?>
<svg
   xmlns:dc="http://purl.org/dc/elements/1.1/"
   xmlns:cc="http://creativecommons.org/ns#"
   xmlns:rdf="http://www.w3.org/1999/02/22-rdf-syntax-ns#"
   xmlns:svg="http://www.w3.org/2000/svg"
   xmlns="http://www.w3.org/2000/svg"
   xmlns:sodipodi="http://sodipodi.sourceforge.net/DTD/sodipodi-0.dtd"
   xmlns:inkscape="http://www.inkscape.org/namespaces/inkscape"
   viewBox="0 0 128 128"
   version="1.1"
   id="svg934"
   sodipodi:docname="rocket.svg"
   inkscape:version="0.92.3 (unknown)">
  <metadata
     id="metadata940">
    <rdf:RDF>
      <cc:Work
         rdf:about="">
        <dc:format>image/svg+xml</dc:format>
        <dc:type
           rdf:resource="http://purl.org/dc/dcmitype/StillImage" />
      </cc:Work>
    </rdf:RDF>
  </metadata>
  <defs
     id="defs938" />
  <sodipodi:namedview
     pagecolor="#ffffff"
     bordercolor="#666666"
     borderopacity="1"
     objecttolerance="10"
     gridtolerance="10"
     guidetolerance="10"
     inkscape:pageopacity="0"
     inkscape:pageshadow="2"
     inkscape:window-width="1920"
     inkscape:window-height="1016"
     id="namedview936"
     showgrid="false"
     inkscape:zoom="3.2265625"
     inkscape:cx="108.50476"
     inkscape:cy="54.566982"
     inkscape:window-x="0"
     inkscape:window-y="34"
     inkscape:window-maximized="1"
     inkscape:current-layer="svg934" />
  <path
     fill="#fff"
     d="M64 95v9.5c0 4.1-3.3 7.5-7.5 7.5h.5c-4 0-6-2-9.6-6.8-2.1-2.8-3.9-5.2-5.6-7.2-.9-1.1-2-2.1-3.1-3-1.7-1.4-3.6-2.4-5.8-3.1C31 91.3 29 91 27 91c-.9 0-1.8.1-2.6.2-1.9.2-3.7.7-5.2 1.5C12.6 95.7 8 102.3 8 110c0 3.5.9 9.7 2.6 12.5.5.9 1.5 1.5 2.6 1.5h98.7c1.1 0 2.1-.6 2.6-1.5 1.6-2.8 2.6-9 2.6-12.5 0-7.7-4.6-14.3-11.2-17.3-1.5-.8-3.3-1.3-5.2-1.5-.9-.1-1.8-.2-2.7-.2-2 0-4 .3-5.8.9-2.2.6-4.1 1.7-5.8 3.1-1.1.9-2.2 1.9-3.1 3-1.8 2-3.5 4.4-5.6 7.2l-3.6-.1c-5.6 0-10.1-4.6-10.1-10.1z"
     id="path922" />
  <path
     fill="#71c2ff"
     d="M111.8 127H13.2c-2.1 0-4.1-1.1-5.2-3-2-3.5-3-10.4-3-14 0-8.6 5-16.4 12.9-20 1.9-.9 4-1.5 6.2-1.8 1.1-.2 2.1-.2 3-.2 2.3 0 4.6.4 6.8 1.1 2.4.7 4.7 1.9 6.8 3.6 1.3 1 2.5 2.2 3.5 3.4 1.7 1.9 3.4 4.1 5.3 6.7l.4.6c3.5 4.6 4.7 5.5 6.8 5.6 2.4 0 4.4-2 4.4-4.5V95c0-1.7 1.3-3 3-3s3 1.3 3 3v9.5c0 5.4-4.1 9.9-9.4 10.4-.4.1-.7.1-1.1.1h-.2c-5.1-.3-7.8-3.4-11.3-8l-.4-.6c-1.9-2.5-3.5-4.6-5-6.4l-.1-.1c-.8-.9-1.6-1.8-2.6-2.6-1.6-1.3-3.1-2.1-4.8-2.6-1.7-.5-3.3-.8-5-.8-.7 0-1.4.1-2.2.2h-.1c-1.5.2-2.9.6-4.2 1.2 0 0-.1 0-.1.1C14.7 98 11 103.7 11 110c0 3.4.9 8.9 2.2 11h98.7c1.2-2.1 2.2-7.6 2.2-11 0-6.3-3.7-12-9.4-14.6 0 0-.1 0-.1-.1-1.3-.6-2.7-1-4.2-1.2h-.1c-.9 0-1.6-.1-2.3-.1-1.7 0-3.3.3-4.9.8-1.8.5-3.3 1.3-4.8 2.6-1 .8-1.9 1.7-2.7 2.6l-.1.1c-1.6 1.8-3.2 3.9-5 6.4l-.5.5c-1 1.3-2.9 1.6-4.2.6-1.3-1-1.6-2.9-.6-4.2l.4-.6c1.9-2.6 3.6-4.8 5.3-6.7 1-1.3 2.2-2.4 3.6-3.5 2.1-1.7 4.3-2.9 6.8-3.6 2.1-.7 4.4-1 6.7-1 .9 0 1.9.1 3 .2 2.2.2 4.3.8 6.2 1.8 7.8 3.6 12.9 11.4 12.9 20 0 3.6-.9 10.5-3 14-1.1 1.9-3.1 3-5.3 3zM64 88c-.2 0-.4 0-.6-.1-.2 0-.4-.1-.6-.2-.2-.1-.3-.2-.5-.3-.2-.1-.3-.2-.5-.4-.5-.4-.8-1.2-.8-2s.3-1.6.9-2.1c.1-.1.3-.3.5-.4.2-.1.3-.2.5-.3.2-.1.4-.1.6-.2.4-.1.8-.1 1.2 0 .2 0 .4.1.6.2.2.1.4.2.5.3.2.1.3.2.4.4.6.6.9 1.3.9 2.1s-.3 1.6-.9 2.1l-.4.4c-.2.1-.3.2-.5.3-.2.1-.4.1-.6.2H64z"
     id="path924"
     style="fill:#70a1ff;fill-opacity:1" />
  <path
     fill="#444b54"
     d="M74.1 68.6c-.3 0-.6 0-.9-.1-1.6-.5-2.4-2.2-1.9-3.8l2.1-6.7C78 43.8 79.9 23.9 64 8.1 48.1 23.9 50 43.8 54.6 58l1.3 4.1c.5 1.6-.4 3.3-1.9 3.8-1.6.5-3.3-.4-3.8-1.9l-1.3-4.1c-7.5-23.3-2.8-44 13.1-58.1 1.1-1 2.8-1 4 0C81.9 16 86.6 36.6 79.1 59.9L77 66.5c-.4 1.3-1.6 2.1-2.9 2.1z"
     id="path926" />
  <path
     fill="#fff"
     d="M74.1 65.6l2.1-6.7C82.6 39.1 80.8 18.9 64 4 47.2 18.9 45.4 39.1 51.7 58.9L53 63"
     id="path928" />
  <circle
     cx="64"
     cy="30"
     r="4"
     fill="#444b54"
     id="circle930"
     style="fill:#57606f;fill-opacity:1" />
  <path
     fill="#444b54"
     d="M85 69.8v-.3c0-.1 0-.2-.1-.3 0-.1-.1-.2-.1-.3 0-.1-.1-.2-.1-.3 0-.1-.1-.2-.1-.3-.1-.1-.1-.2-.2-.2-.1-.1-.1-.2-.2-.2l-.2-.2-.2-.2c-.1-.1-.2-.1-.3-.2-.1 0-.1-.1-.2-.1l-5.7-2.7 1.5-4.8C86.6 36.6 81.9 15.9 66 1.8c-1.1-1-2.9-1-4 0-15.9 14.1-20.6 34.8-13.1 58l.7 2.3-5.7 5.7c-.6.6-.9 1.4-.9 2.2v4.9c0 1.5 1 2.8 2.4 3.1 1.9.4 3.6-1.1 3.6-2.9v-3.8l5.9-5.9c.9-.8 1.4-2 1-3.3L54.6 58C50 43.8 48.1 23.9 64 8.1c14.9 14.8 14.1 33.2 10.2 47.2-1 3.6-5 5.4-8.4 3.8l-.4-.2c-1.3-.6-3-.3-3.8.8-.5.6-.6 1.3-.6 2v13.1c0 1.5 1 2.8 2.4 3.1 1.9.4 3.6-1.1 3.6-2.9v-8.7l12 5.6v3c0 1.5 1 2.8 2.4 3.1 1.9.4 3.6-1.1 3.6-2.9v-5-.3z"
     id="path932"
     style="fill:#2f3542;fill-opacity:1" />
</svg>
